PathFileType	4	(X/Y/Z)	/Users/visionmauri/Downloads/Videos/OAW06-top_Sports2D/OAW06-top_Sports2D_m_person00.trc
DataRate	CameraRate	NumFrames	NumMarkers	Units	OrigDataRate	OrigDataStartFrame	OrigNumFrames
30.0	30.0	7	22	m	30.0	381	1524
Frame#	Time	Hip			RHip			RKnee			RAnkle			RBigToe			RSmallToe			RHeel			LHip			LKnee			LAnkle			LBigToe			LSmallToe			LHeel			Neck			Head			Nose			RShoulder			RElbow			RWrist			LShoulder			LElbow			LWrist			
		X1	Y1	Z1	X2	Y2	Z2	X3	Y3	Z3	X4	Y4	Z4	X5	Y5	Z5	X6	Y6	Z6	X7	Y7	Z7	X8	Y8	Z8	X9	Y9	Z9	X10	Y10	Z10	X11	Y11	Z11	X12	Y12	Z12	X13	Y13	Z13	X14	Y14	Z14	X15	Y15	Z15	X16	Y16	Z16	X17	Y17	Z17	X18	Y18	Z18	X19	Y19	Z19	X20	Y20	Z20	X21	Y21	Z21	X22	Y22	Z22
513	17.10804327375353	3.3130618874271853	-0.3839245640683128	0.0301	3.3954035157332068	-0.5116284249361147	0.0301	2.7523600637076124	-0.6455317129299897	0.129	2.313718018101748	-0.8166654264982596	0.023	2.3454661197468307	-0.6545784211391835	0.2179	2.4057020578021726	-0.7766562567264963	0.1804	2.272818079298725	-0.8412191938925477	-0.0119	3.230584968031537	-0.25367777217041654	0.0301	2.629816742411457	-0.3917594610777399	0.129	2.2506274536304938	-0.6182845113579587	0.023	2.3380787382817205	-0.5648614332545795	0.2179	2.2998229786804094	-0.5540141226505845	0.1804	2.2859294706871305	-0.6834997792650924	-0.0119	4.21192656035305	0.11444960859604125	0.0008	4.597437223487023	0.36341554535071124	0.0655	4.351713439749652	0.2742276906971542	0.1076	4.180795354344648	-0.20686253779563238	-0.01275	3.772443376150144	-0.4806521337532849	0.0702	3.4889090092384167	-0.47877279714286564	0.1076	3.916418018318485	0.238627398614558	-0.01275	3.397662538601723	0.06260493226543666	0.0702	2.985406878339103	0.05599909296476691	0.1076
514	17.14139228598307	3.3030690688708617	-0.376335763120018	0.0301	3.3870853691269236	-0.5055404859342412	0.0301	2.74353198713379	-0.6501402904268787	0.129	2.309927712553794	-0.8160736284007422	0.023	2.3216970749709267	-0.6564050990035456	0.2179	2.390934139010222	-0.7866725432773841	0.1804	2.2660192376292114	-0.8375752502689279	-0.0119	3.224854294794439	-0.24272000465915128	0.0301	2.6061143466164496	-0.39254562256387787	0.129	2.229078783854072	-0.6016821665906913	0.023	2.315565786878954	-0.5512097704920352	0.2179	2.2814369568558104	-0.5288114879628535	0.1804	2.2432311960830003	-0.6608758715410128	-0.0119	4.2146639654119635	0.1143535006759499	0.0008	4.609665818136124	0.3682980928122275	0.0655	4.358317538700323	0.2761022826507344	0.1076	4.1781674922408	-0.2057776590277301	-0.01275	3.771931908937492	-0.4777427497959712	0.0702	3.484113605770327	-0.48743002702083404	0.1076	3.915448827400437	0.24427744828683698	-0.01275	3.3949361576465757	0.06606669514174054	0.0702	2.992683668551155	0.054417716775387245	0.1076
515	17.17474129821261	3.3026250258281413	-0.3656628910673	0.0301	3.387155649261068	-0.49688858995609797	0.0301	2.7420470084356956	-0.6492700184994553	0.129	2.3043552790779893	-0.8123484028057163	0.023	2.302639951586241	-0.6383339952623246	0.2179	2.3722859988089056	-0.7963938254175069	0.1804	2.257584684263809	-0.8308230561188115	-0.0119	3.2245385241813294	-0.2281004521058311	0.0301	2.591809891531099	-0.3941419960995348	0.129	2.207941298927941	-0.5801570253893024	0.023	2.2938436245740785	-0.5244607242645378	0.2179	2.2631704270077835	-0.4952045943154309	0.1804	2.1993838271491044	-0.6314018855606573	-0.0119	4.218082580467096	0.11765626161547524	0.0008	4.615646384365622	0.36956637812164567	0.0655	4.362656303095226	0.2780389864859777	0.1076	4.176794851076825	-0.2033107792627589	-0.01275	3.771358632349733	-0.47363442156125435	0.0702	3.482237910390421	-0.49036013617053154	0.1076	3.9176733269016757	0.25262196869855313	-0.01275	3.3987113723714115	0.07462490809946112	0.0702	3.007990263527284	0.05508904518064069	0.1076
516	17.20809031044215	3.3078226074137045	-0.3525428296445542	0.0301	3.3917589837604525	-0.4852490007676717	0.0301	2.7449750460376836	-0.6437916782970861	0.129	2.2998399408759096	-0.8065101240921219	0.023	2.2906561731153254	-0.6135561393399391	0.2179	2.358298509396264	-0.8039506602679204	0.1804	2.2515648407743996	-0.8219846361702492	-0.0119	3.229978552913216	-0.2123783155524252	0.0301	2.586083205143693	-0.39296242299656775	0.129	2.1910364851388	-0.5550255355211566	0.023	2.276768345767295	-0.4964507853936936	0.2179	2.2450157689881816	-0.4554449425956909	0.1804	2.168786119637971	-0.5966046506164324	-0.0119	4.221160645180499	0.12323480805119999	0.0008	4.615800243908234	0.3674594955547391	0.0655	4.366079895949604	0.2777316965946136	0.1076	4.176686999956683	-0.2018293386751668	-0.01275	3.7715990435325972	-0.4697386562510665	0.0702	3.4816852356942305	-0.48843057626892405	0.1076	3.921030197252255	0.2628302755288742	-0.01275	3.409651278353549	0.08867270716902333	0.0702	3.028197602012475	0.05703676741316665	0.1076
517	17.241439322671685	3.3112770413244945	-0.3383762687678332	0.0301	3.39425191056773	-0.4713046241859257	0.0301	2.7476622784296785	-0.6380208357666475	0.129	2.297188848699455	-0.8020888633621318	0.023	2.2875552695087404	-0.6020787262162237	0.2179	2.358877426859265	-0.8070914578703878	0.1804	2.2492502982718543	-0.815333542466404	-0.0119	3.2375395477689293	-0.19718009120904417	0.0301	2.586222374429527	-0.38704998086965536	0.129	2.1816507763324595	-0.5317782023837274	0.023	2.2662937888407164	-0.47748120468997357	0.2179	2.229053860827147	-0.4156601007329726	0.1804	2.1560015799146655	-0.5621089545976167	-0.0119	4.221971828252394	0.12964102181738443	0.0008	4.613113256200432	0.366332610425092	0.0655	4.368950287731476	0.2764297867712626	0.1076	4.176280070591655	-0.20142156193758495	-0.01275	3.772799516009627	-0.4646882248269222	0.0702	3.482522515638625	-0.485334995850044	0.1076	3.9211000153934337	0.274898288576686	-0.01275	3.4216828542552142	0.10491102405370385	0.0702	3.0470661842176683	0.05923815499896442	0.1076
518	17.274788334901224	3.310441215132903	-0.3233404393012269	0.0301	3.393331207564946	-0.4570509097869798	0.0301	2.7499145987010083	-0.633326457514763	0.129	2.296461233182821	-0.800562889419869	0.023	2.289725066877128	-0.60838172429774	0.2179	2.367690569422035	-0.8092652979148953	0.1804	2.2484760960687376	-0.8128033123730055	-0.0119	3.2409675597983205	-0.18208094229317526	0.0301	2.5896507236773827	-0.37722360933539056	0.129	2.1789287855994486	-0.5160168621920952	0.023	2.2602638149867222	-0.46918162565603266	0.2179	2.220149873955866	-0.386973181956549	0.1804	2.1557335817849457	-0.5368697505325432	-0.0119	4.219584207734833	0.1362128491562023	0.0008	4.609467649962061	0.36844028768967596	0.0655	4.370238539539387	0.2763872024914278	0.1076	4.175262660076746	-0.19941134718908637	-0.01275	3.7724397956605795	-0.457533008854215	0.0702	3.4849719609828718	-0.48041125835882004	0.1076	3.917973491850149	0.288915645035905	-0.01275	3.428441319779987	0.12064107769917619	0.0702	3.0585080830418008	0.06293675073835173	0.1076
519	17.308137347130764	3.3058044005596128	-0.3073446034977532	0.0301	3.3893615176654643	-0.44372260179031536	0.0301	2.751851864287444	-0.6273783390700687	0.129	2.297644326178245	-0.8008243288889904	0.023	2.29386823683639	-0.6269298700635023	0.2179	2.3691711646187645	-0.8151455362993218	0.1804	2.2471006999345584	-0.8121766999626202	-0.0119	3.2368026693884424	-0.16610681117507853	0.0301	2.5926222984256797	-0.3668941322364111	0.129	2.179993678662981	-0.5095646366090558	0.023	2.255742232859071	-0.46913760132637433	0.2179	2.2192176588159946	-0.3740318981458658	0.1804	2.1628964794681886	-0.524390469653949	-0.0119	4.21600258188593	0.14354161444911653	0.0008	4.606537842438266	0.3730359369607691	0.0655	4.3709937935601895	0.2781939967857675	0.1076	4.175838537057332	-0.19332163201339597	-0.01275	3.767836774458721	-0.4497137491349913	0.0702	3.4871786673378558	-0.47249763966887554	0.1076	3.9140922359255264	0.30414107043244143	-0.01275	3.428855019940195	0.13653872062021552	0.0702	3.0607671681184336	0.07018864217372507	0.1076
